<svg width="24" height="16" viewBox="0 0 24 16" fill="none" xmlns="http://www.w3.org/2000/svg">
<path d="M24 14.6663C24 15.4027 23.403 15.9997 22.6667 15.9997H13.3333C12.597 15.9997 12 15.4027 12 14.6663C12 13.93 12.597 13.333 13.3333 13.333H22.6667C23.403 13.333 24 13.93 24 14.6663Z" fill="#E42261"/>
<path d="M24 8C24 8.73638 23.403 9.33333 22.6667 9.33333H1.33333C0.596954 9.33333 0 8.73638 0 8C0 7.26362 0.596954 6.66667 1.33333 6.66667H22.6667C23.403 6.66667 24 7.26362 24 8ZM24 1.33333C24 2.06971 23.403 2.66667 22.6667 2.66667H1.33333C0.596954 2.66667 0 2.06971 0 1.33333C0 0.596954 0.596954 0 1.33333 0H22.6667C23.403 0 24 0.596954 24 1.33333Z" fill="#220F0F"/>
</svg>
