<svg width="32" height="32" viewBox="0 0 32 32" fill="none" xmlns="http://www.w3.org/2000/svg">
<circle cx="16" cy="16" r="16" fill="#E42261"/>
<path d="M8.44728 8.44728C8.73376 8.16089 9.12226 8 9.52734 8C9.93242 8 10.3209 8.16089 10.6074 8.44728L16.0092 13.8491L21.411 8.44728C21.6992 8.169 22.0851 8.01502 22.4856 8.0185C22.8862 8.02198 23.2693 8.18265 23.5526 8.46589C23.8358 8.74913 23.9965 9.13229 23.9999 9.53284C24.0034 9.93339 23.8494 10.3193 23.5712 10.6074L18.1693 16.0092L23.5712 21.411C23.8494 21.6992 24.0034 22.0851 23.9999 22.4856C23.9965 22.8862 23.8358 23.2693 23.5526 23.5526C23.2693 23.8358 22.8862 23.9965 22.4856 23.9999C22.0851 24.0034 21.6992 23.8494 21.411 23.5712L16.0092 18.1693L10.6074 23.5712C10.3193 23.8494 9.93339 24.0034 9.53284 23.9999C9.13229 23.9965 8.74913 23.8358 8.46589 23.5526C8.18265 23.2693 8.02198 22.8862 8.0185 22.4856C8.01502 22.0851 8.169 21.6992 8.44728 21.411L13.8491 16.0092L8.44728 10.6074C8.16089 10.3209 8 9.93242 8 9.52734C8 9.12226 8.16089 8.73376 8.44728 8.44728Z" fill="white"/>
</svg>
