<svg width="24" height="24" viewBox="0 0 24 24" fill="none" xmlns="http://www.w3.org/2000/svg">
<path d="M23.888 18.8806C23.8312 18.5297 23.6113 18.2298 23.2818 18.0517L18.4079 15.18L18.3678 15.1576C18.1634 15.0553 17.9377 15.0029 17.7092 15.0046C17.3009 15.0046 16.9109 15.1593 16.6402 15.4306L15.2017 16.8698C15.1402 16.9283 14.9396 17.013 14.8787 17.016C14.862 17.0147 13.2049 16.8953 10.1541 13.8442C7.10868 10.7995 6.97948 9.13719 6.97846 9.13719C6.98016 9.05219 7.0638 8.85227 7.1233 8.79039L8.35002 7.56401C8.78216 7.13085 8.9117 6.41277 8.65534 5.85653L5.94622 0.758913C5.74936 0.353633 5.36686 0.103394 4.94254 0.103394C4.64232 0.103394 4.35264 0.227834 4.1262 0.453934L0.782299 3.79035C0.461679 4.10927 0.185599 4.66687 0.125419 5.11567C0.0961791 5.33021 -0.497121 10.4513 6.52388 17.4733C12.4844 23.4332 17.1322 23.8962 18.4157 23.8962C18.572 23.8983 18.7283 23.8902 18.8836 23.8721C19.331 23.8123 19.8879 23.5369 20.2065 23.2176L23.5477 19.8768C23.8204 19.6027 23.9448 19.2406 23.888 18.8806Z" fill="white"/>
</svg>
