<svg width="24" height="24" viewBox="0 0 24 24" fill="none" xmlns="http://www.w3.org/2000/svg">
<g clip-path="url(#clip0_614_387)">
<path d="M1.69226 23.8729C0.945971 24.0765 0.26099 23.392 0.464124 22.6455L1.62722 18.3717C0.558181 16.5391 -0.00346876 14.4549 1.61187e-05 12.3333C1.61187e-05 5.70571 5.37241 0.333313 12 0.333313C18.6276 0.333313 24 5.70571 24 12.3333C24 18.9609 18.6276 24.3333 12 24.3333C9.87934 24.3367 7.796 23.7755 5.96401 22.7073L1.69226 23.8729ZM7.66921 6.70291C7.51425 6.71253 7.36282 6.75335 7.22401 6.82291C7.09384 6.89663 6.97501 6.98878 6.87121 7.09651C6.72721 7.23211 6.64561 7.34971 6.55801 7.46371C6.11451 8.0409 5.87594 8.74941 5.88001 9.47731C5.88241 10.0653 6.03601 10.6377 6.27601 11.1729C6.76681 12.2553 7.57441 13.4013 8.64121 14.4633C8.89801 14.7189 9.14881 14.9757 9.41881 15.2145C10.7429 16.3803 12.3207 17.221 14.0268 17.6697L14.7096 17.7741C14.9316 17.7861 15.1536 17.7693 15.3768 17.7585C15.7263 17.7405 16.0675 17.6458 16.3764 17.4813C16.5336 17.4004 16.6869 17.3123 16.836 17.2173C16.836 17.2173 16.8876 17.1837 16.986 17.1093C17.148 16.9893 17.2476 16.9041 17.382 16.7637C17.4816 16.6605 17.568 16.5393 17.634 16.4013C17.7276 16.2057 17.8212 15.8325 17.8596 15.5217C17.8884 15.2841 17.88 15.1545 17.8764 15.0741C17.8716 14.9457 17.7648 14.8125 17.6484 14.7561L16.95 14.4429C16.95 14.4429 15.906 13.9881 15.2688 13.6977C15.2016 13.6684 15.1296 13.6517 15.0564 13.6485C14.9743 13.6401 14.8913 13.6493 14.8131 13.6756C14.7349 13.7019 14.6632 13.7446 14.6028 13.8009V13.7985C14.5968 13.7985 14.5164 13.8669 13.6488 14.9181C13.599 14.985 13.5304 15.0356 13.4518 15.0634C13.3731 15.0912 13.288 15.0949 13.2072 15.0741C13.129 15.0532 13.0524 15.0267 12.978 14.9949C12.8292 14.9325 12.7776 14.9085 12.6756 14.8641L12.6696 14.8617C11.9831 14.562 11.3475 14.1571 10.7856 13.6617C10.6344 13.5297 10.494 13.3857 10.35 13.2465C9.8779 12.7944 9.46647 12.2829 9.12601 11.7249L9.05521 11.6109C9.00436 11.5343 8.96324 11.4517 8.93281 11.3649C8.88721 11.1885 9.00601 11.0469 9.00601 11.0469C9.00601 11.0469 9.29761 10.7277 9.43321 10.5549C9.54612 10.4113 9.65146 10.2619 9.74881 10.1073C9.89041 9.87931 9.93481 9.64531 9.86041 9.46411C9.52441 8.64331 9.17641 7.82611 8.81881 7.01491C8.74801 6.85411 8.53801 6.73891 8.34721 6.71611C8.28241 6.70891 8.21761 6.70171 8.15281 6.69691C7.99166 6.6889 7.83017 6.69171 7.66921 6.70291Z" fill="white"/>
</g>
<defs>
<clipPath id="clip0_614_387">
<rect width="24" height="24" fill="white"/>
</clipPath>
</defs>
</svg>
